HIERARCHY
ROOT Hips
{
    OFFSET 0.000000 0.000000 0.000000
    CHANNELS 6 Xposition Yposition Zposition Zrotation Xrotation Yrotation
    JOINT Spine
    {
        OFFSET -0.000000 8.129577 0.000000
        CHANNELS 3 Zrotation Xrotation Yrotation
        JOINT Spine1
        {
            OFFSET -0.000000 26.390701 0.000000
            CHANNELS 3 Zrotation Xrotation Yrotation
            JOINT Neck
            {
                OFFSET -0.000000 26.282320 2.389302
                CHANNELS 3 Zrotation Xrotation Yrotation
                JOINT Head
                {
                    OFFSET -0.000000 13.879765 -1.982823
                    CHANNELS 3 Zrotation Xrotation Yrotation
                    End Site
                    {
                        OFFSET -0.000000 24.785294 0.000000
                    }
                }
            }
            JOINT LeftShoulder
            {
                OFFSET 3.977886 23.574526 -0.273520
                CHANNELS 3 Zrotation Xrotation Yrotation
                JOINT LeftArm
                {
                    OFFSET 13.762619 0.000000 0.000000
                    CHANNELS 3 Zrotation Xrotation Yrotation
                    JOINT LeftForeArm
                    {
                        OFFSET 26.101372 0.000000 0.000000
                        CHANNELS 3 Zrotation Xrotation Yrotation
                        JOINT LeftHand
                        {
                            OFFSET 29.959852 0.000000 0.000000
                            CHANNELS 3 Zrotation Xrotation Yrotation
                            End Site
                            {
                                OFFSET 14.871177 0.000000 0.000000
                            }
                        }
                    }
                }
            }
            JOINT RightShoulder
            {
                OFFSET -3.951699 23.574526 -0.273520
                CHANNELS 3 Zrotation Xrotation Yrotation
                JOINT RightArm
                {
                    OFFSET -13.762619 0.000000 0.000000
                    CHANNELS 3 Zrotation Xrotation Yrotation
                    JOINT RightForeArm
                    {
                        OFFSET -26.101372 0.000000 0.000000
                        CHANNELS 3 Zrotation Xrotation Yrotation
                        JOINT RightHand
                        {
                            OFFSET -29.959852 0.000000 0.000000
                            CHANNELS 3 Zrotation Xrotation Yrotation
                            End Site
                            {
                                OFFSET -14.871177 0.000000 0.000000
                            }
                        }
                    }
                }
            }
        }
    }
    JOINT LeftUpLeg
    {
        OFFSET 9.914117 0.000000 0.000000
        CHANNELS 3 Zrotation Xrotation Yrotation
        JOINT LeftLeg
        {
            OFFSET -0.000000 -41.427933 0.000000
            CHANNELS 3 Zrotation Xrotation Yrotation
            JOINT LeftFoot
            {
                OFFSET -0.000000 -41.025417 0.000000
                CHANNELS 3 Zrotation Xrotation Yrotation
                JOINT LeftToeBase
                {
                    OFFSET -0.000000 -6.444176 14.871177
                    CHANNELS 3 Zrotation Xrotation Yrotation
                    End Site
                    {
                        OFFSET -0.000000 0.000000 3.965647
                    }
                }
            }
        }
    }
    JOINT RightUpLeg
    {
        OFFSET -9.914117 0.000000 0.000000
        CHANNELS 3 Zrotation Xrotation Yrotation
        JOINT RightLeg
        {
            OFFSET -0.000000 -41.427933 0.000000
            CHANNELS 3 Zrotation Xrotation Yrotation
            JOINT RightFoot
            {
                OFFSET -0.000000 -41.025417 0.000000
                CHANNELS 3 Zrotation Xrotation Yrotation
                JOINT RightToeBase
                {
                    OFFSET -0.000000 -6.444176 14.871177
                    CHANNELS 3 Zrotation Xrotation Yrotation
                    End Site
                    {
                        OFFSET -0.000000 0.000000 3.965647
                    }
                }
            }
        }
    }
}
MOTION
Frames:    4
Frame Time:    0.004000
-17.104986    82.975914    -211.413498    0.153481    -0.435819    6.414416    -0.115333    -0.359270    -1.765460    -2.216516    -4.827654    -1.858582    2.497327    14.079870    -2.959876    0.737270    -4.519081    -2.997672    10.457727    2.109340    1.544509    -15.168256    -0.868489    2.381299    4.625775    2.776425    -3.452559    2.953062    2.972053    2.186605    -6.431214    3.127449    1.039848    13.829622    7.989330    -6.171674    -4.738162    -1.088811    1.205241    -2.485312    -1.112677    3.396291    -1.622035    4.992770    -1.359985    0.501833    -6.003244    2.993281    4.419227    -1.625524    4.876247    0.000000    0.000000    0.000000    0.302335    3.437081    -0.002971    0.469286    -2.783561    4.239393    -2.390211    -3.780904    -15.577558    0.000000    0.000000    0.000000    
-17.097164    82.977089    -211.418488    0.151662    -0.435271    6.409166    -0.092491    -0.342036    -1.777148    -2.255870    -4.849803    -1.872419    2.496194    14.057889    -2.956317    0.767052    -4.466998    -2.989433    10.468832    2.111913    1.575184    -15.147714    -0.881867    2.359971    4.707076    2.857687    -3.431622    2.412932    3.041624    2.045580    -6.421317    3.127399    1.030272    13.827756    7.946215    -6.171309    -4.725655    -1.059421    1.199868    -2.492016    -1.083955    3.399323    -1.622115    4.984529    -1.360414    0.495689    -5.994468    2.977687    4.424694    -1.620715    4.888214    0.000000    0.000000    0.000000    0.296232    3.442854    0.000295    0.472840    -2.798199    4.250821    -2.401520    -3.763346    -15.590540    0.000000    0.000000    0.000000    
-17.093941    82.977562    -211.421829    0.147055    -0.429982    6.406627    -0.092414    -0.357262    -1.776747    -2.255705    -4.840212    -1.871829    2.516568    14.111117    -2.961804    0.746044    -4.544444    -2.997590    10.483741    2.116190    1.554060    -15.151258    -0.932632    2.362240    4.605559    2.799401    -3.474622    3.015310    2.996701    2.195300    -6.420252    3.142068    1.034335    13.828987    7.938637    -6.186836    -4.730894    -1.051190    1.194757    -2.463612    -1.075339    3.414929    -1.613942    4.979367    -1.376518    0.484038    -5.998593    2.988951    4.451491    -1.621288    4.895535    0.000000    0.000000    0.000000    0.296786    3.441814    -0.000644    0.478901    -2.815352    4.254920    -2.389295    -3.749213    -15.597469    0.000000    0.000000    0.000000    
-17.088436    82.978172    -211.424774    0.153633    -0.423546    6.398874    -0.098079    -0.360998    -1.777843    -2.255542    -4.844714    -1.872952    2.494061    14.100166    -2.957101    0.777990    -4.507151    -2.986955    10.479619    2.109417    1.555639    -15.144069    -0.936608    2.357850    4.703646    2.868671    -3.437819    2.393205    3.052307    2.040330    -6.424656    3.157365    1.025021    13.824621    7.906000    -6.175881    -4.679382    -1.028681    1.149472    -2.737377    -1.061172    3.325353    -1.624426    4.968077    -1.374826    0.481034    -5.988915    2.993253    4.444589    -1.609409    4.902505    0.000000    0.000000    0.000000    0.287086    3.440756    0.003944    0.475204    -2.828418    4.227563    -2.406020    -3.747982    -15.566228    0.000000    0.000000    0.000000    
